# xmcd
#
# Track frame offsets:
#	182
#	21125
#	37170
#	57522
#	77082
#	97305
#	114465
#	132937
#	147395
#	167165
#	197712
#	213805
#	231585
#	246382
#
# Disc length: 3455 seconds
# Revision: 5
# Processed by: cddbd v1.5.2PL0 Copyright (c) Steve Scherf et al.
# Submitted via: dBpowerAMP V12.0
#
DISCID=d50d7d0e
DTITLE=The Jeff Healey Band - Cover to Cover
DYEAR=1995
DGENRE=Blues
TTITLE0=Shapes of Things
TTITLE1=Freedom
TTITLE2=Yer Blues
TTITLE3=Stop Breakin' Down
TTITLE4=Angel
TTITLE5=Evil
TTITLE6=Stuck in the Middle With You
TTITLE7=I Got a Line on You
TTITLE8=Run Through the Jungle
TTITLE9=As the Years Go Passing By
TTITLE10=I'm Ready
TTITLE11=Badge
TTITLE12=Communication Breakdown
TTITLE13=Me and My Crazy Self
EXTD=
EXTT0=
EXTT1=
EXTT2=
EXTT3=
EXTT4=
EXTT5=
EXTT6=
EXTT7=
EXTT8=
EXTT9=
EXTT10=
EXTT11=
EXTT12=
EXTT13=
PLAYORDER=
